<svg xmlns="http://www.w3.org/2000/svg" viewBox="0 0 128 128" width="128" height="128">
  <defs>
    <linearGradient id="docBg" x1="0" y1="0" x2="0" y2="1">
      <stop offset="0%" stop-color="#FFFFFF"/>
      <stop offset="100%" stop-color="#E2E8F0"/>
    </linearGradient>
    <linearGradient id="foldCorner" x1="0" y1="0" x2="1" y2="1">
      <stop offset="0%" stop-color="#CBD5E1"/>
      <stop offset="100%" stop-color="#94A3B8"/>
    </linearGradient>
    <filter id="shadow" x="-10%" y="-10%" width="120%" height="125%">
      <feDropShadow dx="0" dy="4" stdDeviation="4" flood-opacity="0.25"/>
    </filter>
  </defs>
  <!-- Main Document Page -->
  <path d="M 28 12 L 78 12 L 100 34 L 100 114 C 100 118.4 96.4 122 92 122 L 28 122 C 23.6 122 20 118.4 20 114 L 20 20 C 20 15.6 23.6 12 28 12 Z" fill="url(#docBg)" filter="url(#shadow)"/>
  <path d="M 28 12 L 78 12 L 100 34 L 100 114 C 100 118.4 96.4 122 92 122 L 28 122 C 23.6 122 20 118.4 20 114 L 20 20 C 20 15.6 23.6 12 28 12 Z" fill="none" stroke="rgba(0,0,0,0.12)" stroke-width="1.5"/>

  <!-- Folded Corner -->
  <path d="M 78 12 L 78 32 C 78 33.1 78.9 34 80 34 L 100 34 Z" fill="url(#foldCorner)"/>

  <!-- Text lines -->
  <line x1="36" y1="46" x2="70" y2="46" stroke="#051A24" stroke-width="4" stroke-linecap="round"/>
  <line x1="36" y1="60" x2="86" y2="60" stroke="#94A3B8" stroke-width="3" stroke-linecap="round"/>
  <line x1="36" y1="72" x2="86" y2="72" stroke="#94A3B8" stroke-width="3" stroke-linecap="round"/>
  <line x1="36" y1="84" x2="74" y2="84" stroke="#94A3B8" stroke-width="3" stroke-linecap="round"/>

  <!-- CV Badge -->
  <rect x="36" y="96" width="34" height="16" rx="4" fill="#051A24"/>
  <text x="53" y="108" text-anchor="middle" dominant-baseline="central" fill="#FFFFFF" font-family="system-ui, -apple-system, sans-serif" font-size="9" font-weight="bold">CV</text>
</svg>
